%% Code generated by shiftgen at test_shift_test.go:16. DO NOT EDIT.

stateDiagram-v2
	direction LR
	
	[*]-->StatusInit
	[*]-->&{s %!s(token.Pos=52540) [%!s(*ast.BasicLit=&{52541 5 1})] %!s(token.Pos=0) %!s(token.Pos=52542)}
	[*]-->&{s %!s(token.Pos=53677) [%!s(*ast.BasicLit=&{53678 5 1})] %!s(token.Pos=0) %!s(token.Pos=53679)}
	[*]-->&{s %!s(token.Pos=61936) [%!s(*ast.BasicLit=&{61937 5 1})] %!s(token.Pos=0) %!s(token.Pos=61938)}
	[*]-->&{s %!s(token.Pos=62037) [%!s(*ast.BasicLit=&{62038 5 1})] %!s(token.Pos=0) %!s(token.Pos=62039)}
	[*]-->&{s %!s(token.Pos=62174) [%!s(*ast.BasicLit=&{62175 5 1})] %!s(token.Pos=0) %!s(token.Pos=62176)}
	[*]-->&{s %!s(token.Pos=62322) [%!s(*ast.BasicLit=&{62323 5 1})] %!s(token.Pos=0) %!s(token.Pos=62324)}
	[*]-->&{s %!s(token.Pos=62449) [%!s(*ast.BasicLit=&{62450 5 1})] %!s(token.Pos=0) %!s(token.Pos=62451)}
	[*]-->&{s %!s(token.Pos=63265) [%!s(*ast.BasicLit=&{63266 5 1})] %!s(token.Pos=0) %!s(token.Pos=63267)}
	
	StatusUpdate-->StatusInit
	StatusInit-->StatusUpdate
	StatusUpdate-->StatusComplete
	&{s %!s(token.Pos=52567) [%!s(*ast.BasicLit=&{52568 5 2})] %!s(token.Pos=0) %!s(token.Pos=52569)}-->&{s %!s(token.Pos=52578) [%!s(*ast.BasicLit=&{52579 5 2})] %!s(token.Pos=0) %!s(token.Pos=52580)}
	&{s %!s(token.Pos=52540) [%!s(*ast.BasicLit=&{52541 5 1})] %!s(token.Pos=0) %!s(token.Pos=52542)}-->&{s %!s(token.Pos=52551) [%!s(*ast.BasicLit=&{52552 5 2})] %!s(token.Pos=0) %!s(token.Pos=52553)}
	&{s %!s(token.Pos=53706) [%!s(*ast.BasicLit=&{53707 5 2})] %!s(token.Pos=0) %!s(token.Pos=53708)}-->&{s %!s(token.Pos=53719) [%!s(*ast.BasicLit=&{53720 5 2})] %!s(token.Pos=0) %!s(token.Pos=53721)}
	&{s %!s(token.Pos=53677) [%!s(*ast.BasicLit=&{53678 5 1})] %!s(token.Pos=0) %!s(token.Pos=53679)}-->&{s %!s(token.Pos=53690) [%!s(*ast.BasicLit=&{53691 5 2})] %!s(token.Pos=0) %!s(token.Pos=53692)}
	&{s %!s(token.Pos=62037) [%!s(*ast.BasicLit=&{62038 5 1})] %!s(token.Pos=0) %!s(token.Pos=62039)}-->&{s %!s(token.Pos=62048) [%!s(*ast.BasicLit=&{62049 5 2})] %!s(token.Pos=0) %!s(token.Pos=62050)}
	&{s %!s(token.Pos=62351) [%!s(*ast.BasicLit=&{62352 5 2})] %!s(token.Pos=0) %!s(token.Pos=62353)}-->&{s %!s(token.Pos=62362) [%!s(*ast.BasicLit=&{62363 5 1})] %!s(token.Pos=0) %!s(token.Pos=62364)}
	&{s %!s(token.Pos=62322) [%!s(*ast.BasicLit=&{62323 5 1})] %!s(token.Pos=0) %!s(token.Pos=62324)}-->&{s %!s(token.Pos=62333) [%!s(*ast.BasicLit=&{62334 5 2})] %!s(token.Pos=0) %!s(token.Pos=62335)}
	&{s %!s(token.Pos=62478) [%!s(*ast.BasicLit=&{62479 5 2})] %!s(token.Pos=0) %!s(token.Pos=62480)}-->&{s %!s(token.Pos=62489) [%!s(*ast.BasicLit=&{62490 5 2})] %!s(token.Pos=0) %!s(token.Pos=62491)}
	&{s %!s(token.Pos=62449) [%!s(*ast.BasicLit=&{62450 5 1})] %!s(token.Pos=0) %!s(token.Pos=62451)}-->&{s %!s(token.Pos=62460) [%!s(*ast.BasicLit=&{62461 5 2})] %!s(token.Pos=0) %!s(token.Pos=62462)}
	&{s %!s(token.Pos=63265) [%!s(*ast.BasicLit=&{63266 5 1})] %!s(token.Pos=0) %!s(token.Pos=63267)}-->&{s %!s(token.Pos=63276) [%!s(*ast.BasicLit=&{63277 5 2})] %!s(token.Pos=0) %!s(token.Pos=63278)}
	
	StatusComplete-->[*]
	&{s %!s(token.Pos=62066) [%!s(*ast.BasicLit=&{62067 5 2})] %!s(token.Pos=0) %!s(token.Pos=62068)}-->[*]
	&{s %!s(token.Pos=62197) [%!s(*ast.BasicLit=&{62198 5 2})] %!s(token.Pos=0) %!s(token.Pos=62199)}-->[*]
	&{s %!s(token.Pos=63292) [%!s(*ast.BasicLit=&{63293 5 2})] %!s(token.Pos=0) %!s(token.Pos=63294)}-->[*]
